<svg id="Capa_1" data-name="Capa 1" xmlns="http://www.w3.org/2000/svg" xmlns:xlink="http://www.w3.org/1999/xlink" viewBox="0 0 1287 603"><defs><style>.cls-1,.cls-12,.cls-4{fill:#fff;}.cls-2{fill:url(#Degradado_sin_nombre);}.cls-3{opacity:0.43;}.cls-4{opacity:0.9;}.cls-10,.cls-12,.cls-4,.cls-8,.cls-9{isolation:isolate;}.cls-5{fill:#1976d2;}.cls-6,.cls-9{fill:#f62459;}.cls-7{opacity:0.27;}.cls-10,.cls-8{fill:#1a243a;}.cls-8,.cls-9{opacity:0.08;}.cls-10{opacity:0.16;}.cls-11{opacity:0.11;}.cls-12{opacity:0.12;}</style><linearGradient id="Degradado_sin_nombre" x1="643.2" y1="195.22" x2="643.2" y2="364.84" gradientTransform="matrix(1, 0, 0, -1, 0, 604.4)" gradientUnits="userSpaceOnUse"><stop offset="0" stop-color="#232352"/><stop offset="0.19" stop-color="#20234a"/><stop offset="0.59" stop-color="#1b243e"/><stop offset="1" stop-color="#1a243a"/></linearGradient></defs><title>cover movil solo espacio-01</title><rect class="cls-1" width="1286.4" height="603"/><rect class="cls-2" y="0.1" width="1286.4" height="602.9"/><g class="cls-3"><circle class="cls-4" cx="45" cy="51.7" r="0.9"/><circle class="cls-4" cx="208.9" cy="9.9" r="0.9"/><circle class="cls-4" cx="202" cy="134.5" r="0.9"/><circle class="cls-5" cx="229.1" cy="43.4" r="0.9"/><circle class="cls-4" cx="255.2" cy="51.7" r="0.9"/><circle class="cls-4" cx="294.3" cy="83.9" r="0.9"/><circle class="cls-4" cx="227" cy="98.9" r="0.9"/><circle class="cls-4" cx="302.9" cy="46.1" r="0.9"/><circle class="cls-6" cx="88.8" cy="91.7" r="0.9"/><circle class="cls-6" cx="258.7" cy="96.4" r="0.9"/><circle class="cls-4" cx="78.5" cy="61.5" r="0.9"/><circle class="cls-6" cx="112.2" cy="138.6" r="0.9"/><circle class="cls-6" cx="88" cy="31.5" r="0.9"/></g><g class="cls-3"><circle class="cls-4" cx="54.9" cy="26.3" r="0.9"/><circle class="cls-4" cx="243.8" cy="37.6" r="0.9"/><circle class="cls-4" cx="239.7" cy="73" r="0.9"/><circle class="cls-5" cx="297.2" cy="29.4" r="0.9"/><circle class="cls-4" cx="323.3" cy="37.6" r="0.9"/><circle class="cls-4" cx="362.4" cy="69.8" r="0.9"/><circle class="cls-4" cx="295.1" cy="84.9" r="0.9"/><circle class="cls-4" cx="371" cy="32" r="0.9"/><circle class="cls-6" cx="41.5" cy="73.5" r="0.9"/><circle class="cls-6" cx="326.8" cy="82.3" r="0.9"/><circle class="cls-4" cx="16.8" cy="25.3" r="0.9"/><circle class="cls-6" cx="192.5" cy="73.9" r="0.9"/><circle class="cls-6" cx="156.1" cy="17.4" r="0.9"/></g><g class="cls-3"><circle class="cls-4" cx="758.1" cy="64.7" r="0.9"/><circle class="cls-4" cx="581.3" cy="64.7" r="0.9"/><circle class="cls-4" cx="572.2" cy="20.5" r="0.9"/><circle class="cls-5" cx="527.9" cy="72.9" r="0.9"/><circle class="cls-4" cx="501.8" cy="64.7" r="0.9"/><circle class="cls-4" cx="462.7" cy="32.4" r="0.9"/><circle class="cls-4" cx="530" cy="17.4" r="0.9"/><circle class="cls-4" cx="454.1" cy="70.3" r="0.9"/><circle class="cls-6" cx="668.2" cy="24.7" r="0.9"/><circle class="cls-6" cx="498.3" cy="19.9" r="0.9"/><circle class="cls-4" cx="652" cy="51.8" r="0.9"/><circle class="cls-6" cx="633.4" cy="22.8" r="0.9"/><circle class="cls-6" cx="669" cy="140.9" r="0.9"/></g><g class="cls-3"><circle class="cls-4" cx="915.6" cy="64.7" r="0.9"/><circle class="cls-4" cx="784.9" cy="64.7" r="0.9"/><circle class="cls-4" cx="789" cy="29.3" r="0.9"/><circle class="cls-5" cx="750.4" cy="91.8" r="0.9"/><circle class="cls-4" cx="713.4" cy="143.1" r="0.9"/><circle class="cls-4" cx="692.1" cy="130.3" r="0.9"/><circle class="cls-4" cx="733.6" cy="17.4" r="0.9"/><circle class="cls-4" cx="644.4" cy="114.1" r="0.9"/><circle class="cls-6" cx="871.8" cy="24.7" r="0.9"/><circle class="cls-6" cx="701.9" cy="19.9" r="0.9"/><circle class="cls-4" cx="860.2" cy="40.1" r="0.9"/><circle class="cls-4" cx="1016.5" cy="31.1" r="0.9"/><circle class="cls-6" cx="836.2" cy="28.4" r="0.9"/><circle class="cls-6" cx="872.6" cy="84.9" r="0.9"/><circle class="cls-4" cx="1041.1" cy="160" r="0.9"/><circle class="cls-6" cx="997.3" cy="120" r="0.9"/><circle class="cls-4" cx="985.7" cy="135.4" r="0.9"/><circle class="cls-6" cx="961.7" cy="123.7" r="0.9"/><circle class="cls-6" cx="998.1" cy="180.2" r="0.9"/></g><g class="cls-3"><circle class="cls-4" cx="643.9" cy="78.8" r="0.9"/><circle class="cls-4" cx="513.2" cy="78.8" r="0.9"/><circle class="cls-4" cx="517.3" cy="43.4" r="0.9"/><circle class="cls-5" cx="459.8" cy="87" r="0.9"/><circle class="cls-4" cx="433.7" cy="78.8" r="0.9"/><circle class="cls-4" cx="394.6" cy="46.5" r="0.9"/><circle class="cls-4" cx="461.9" cy="31.5" r="0.9"/><circle class="cls-4" cx="386" cy="84.3" r="0.9"/><circle class="cls-6" cx="600.1" cy="23.7" r="0.9"/><circle class="cls-6" cx="430.2" cy="34" r="0.9"/><circle class="cls-4" cx="602.6" cy="73.9" r="0.9"/><circle class="cls-6" cx="558.5" cy="31.5" r="0.9"/><circle class="cls-6" cx="600.9" cy="98.9" r="0.9"/></g><g class="cls-7"><circle class="cls-4" cx="581.3" cy="118.9" r="0.9"/><circle class="cls-4" cx="397.8" cy="206.6" r="0.9"/><circle class="cls-4" cx="401.9" cy="171.2" r="0.9"/><circle class="cls-5" cx="344.4" cy="214.9" r="0.9"/><circle class="cls-4" cx="318.2" cy="206.6" r="0.9"/><circle class="cls-4" cx="167.7" cy="206.6" r="0.9"/><circle class="cls-4" cx="279.2" cy="174.4" r="0.9"/><circle class="cls-4" cx="346.5" cy="159.4" r="0.9"/><circle class="cls-4" cx="270.5" cy="212.2" r="0.9"/><circle class="cls-4" cx="175.7" cy="168.2" r="0.9"/><circle class="cls-6" cx="484.7" cy="166.6" r="0.9"/><circle class="cls-6" cx="314.8" cy="161.9" r="0.9"/><circle class="cls-6" cx="156.1" cy="133.5" r="0.9"/><circle class="cls-5" cx="96.7" cy="222.1" r="0.9"/><circle class="cls-4" cx="70.5" cy="213.9" r="0.9"/><circle class="cls-4" cx="31.5" cy="181.6" r="0.9"/><circle class="cls-4" cx="98.7" cy="166.6" r="0.9"/><circle class="cls-4" cx="22.8" cy="219.5" r="0.9"/><circle class="cls-6" cx="67" cy="169.1" r="0.9"/><circle class="cls-4" cx="473.1" cy="182" r="0.9"/><circle class="cls-6" cx="449.1" cy="170.3" r="0.9"/><circle class="cls-6" cx="538.3" cy="139" r="0.9"/></g><g class="cls-3"><ellipse class="cls-4" cx="1012.9" cy="396.5" rx="0.9" ry="1.2"/><ellipse class="cls-4" cx="849" cy="451.1" rx="0.9" ry="1.2"/><ellipse class="cls-4" cx="855.9" cy="288.2" rx="0.9" ry="1.2"/><ellipse class="cls-5" cx="828.8" cy="407.2" rx="0.9" ry="1.2"/><ellipse class="cls-4" cx="802.7" cy="396.5" rx="0.9" ry="1.2"/><ellipse class="cls-4" cx="763.6" cy="354.3" rx="0.9" ry="1.2"/><ellipse class="cls-4" cx="830.9" cy="334.7" rx="0.9" ry="1.2"/><ellipse class="cls-4" cx="755" cy="403.8" rx="0.9" ry="1.2"/><ellipse class="cls-6" cx="969.1" cy="344.1" rx="0.9" ry="1.2"/><ellipse class="cls-6" cx="799.2" cy="338" rx="0.9" ry="1.2"/><ellipse class="cls-4" cx="979.4" cy="383.6" rx="0.9" ry="1.2"/><ellipse class="cls-6" cx="945.7" cy="282.7" rx="0.9" ry="1.2"/><ellipse class="cls-6" cx="969.9" cy="422.9" rx="0.9" ry="1.2"/></g><g class="cls-3"><ellipse class="cls-4" cx="1003" cy="429.7" rx="0.9" ry="1.2"/><ellipse class="cls-4" cx="814.1" cy="414.9" rx="0.9" ry="1.2"/><ellipse class="cls-4" cx="818.2" cy="368.6" rx="0.9" ry="1.2"/><ellipse class="cls-5" cx="760.7" cy="425.7" rx="0.9" ry="1.2"/><ellipse class="cls-4" cx="734.6" cy="414.9" rx="0.9" ry="1.2"/><ellipse class="cls-4" cx="695.5" cy="372.7" rx="0.9" ry="1.2"/><ellipse class="cls-4" cx="762.8" cy="353.1" rx="0.9" ry="1.2"/><ellipse class="cls-4" cx="686.9" cy="422.2" rx="0.9" ry="1.2"/><ellipse class="cls-6" cx="1016.4" cy="368" rx="0.9" ry="1.2"/><ellipse class="cls-6" cx="731.1" cy="356.4" rx="0.9" ry="1.2"/><ellipse class="cls-4" cx="1041.1" cy="431" rx="0.9" ry="1.2"/><ellipse class="cls-6" cx="865.4" cy="367.4" rx="0.9" ry="1.2"/><ellipse class="cls-6" cx="901.8" cy="441.3" rx="0.9" ry="1.2"/></g><g class="cls-3"><ellipse class="cls-4" cx="299.8" cy="379.4" rx="0.9" ry="1.2"/><ellipse class="cls-4" cx="476.6" cy="379.4" rx="0.9" ry="1.2"/><ellipse class="cls-4" cx="485.7" cy="437.2" rx="0.9" ry="1.2"/><ellipse class="cls-5" cx="530" cy="368.7" rx="0.9" ry="1.2"/><ellipse class="cls-4" cx="556.1" cy="379.4" rx="0.9" ry="1.2"/><ellipse class="cls-4" cx="595.2" cy="421.6" rx="0.9" ry="1.2"/><ellipse class="cls-4" cx="527.9" cy="441.3" rx="0.9" ry="1.2"/><ellipse class="cls-4" cx="603.8" cy="372.2" rx="0.9" ry="1.2"/><ellipse class="cls-6" cx="389.7" cy="431.8" rx="0.9" ry="1.2"/><ellipse class="cls-6" cx="559.6" cy="438" rx="0.9" ry="1.2"/><ellipse class="cls-4" cx="406" cy="396.3" rx="0.9" ry="1.2"/><ellipse class="cls-6" cx="424.5" cy="434.3" rx="0.9" ry="1.2"/><ellipse class="cls-6" cx="388.9" cy="279.7" rx="0.9" ry="1.2"/></g><g class="cls-3"><ellipse class="cls-4" cx="142.3" cy="379.4" rx="0.9" ry="1.2"/><ellipse class="cls-4" cx="273" cy="379.4" rx="0.9" ry="1.2"/><ellipse class="cls-4" cx="268.9" cy="425.7" rx="0.9" ry="1.2"/><ellipse class="cls-5" cx="307.5" cy="344" rx="0.9" ry="1.2"/><ellipse class="cls-4" cx="344.5" cy="276.8" rx="0.9" ry="1.2"/><ellipse class="cls-4" cx="365.8" cy="293.7" rx="0.9" ry="1.2"/><ellipse class="cls-4" cx="324.3" cy="441.3" rx="0.9" ry="1.2"/><ellipse class="cls-4" cx="413.5" cy="314.8" rx="0.9" ry="1.2"/><ellipse class="cls-6" cx="186.1" cy="431.8" rx="0.9" ry="1.2"/><ellipse class="cls-6" cx="356" cy="438" rx="0.9" ry="1.2"/><ellipse class="cls-4" cx="197.7" cy="411.7" rx="0.9" ry="1.2"/><ellipse class="cls-4" cx="41.4" cy="423.4" rx="0.9" ry="1.2"/><ellipse class="cls-6" cx="221.7" cy="427" rx="0.9" ry="1.2"/><ellipse class="cls-6" cx="185.3" cy="353.1" rx="0.9" ry="1.2"/><ellipse class="cls-4" cx="16.8" cy="254.8" rx="0.9" ry="1.2"/><ellipse class="cls-6" cx="60.6" cy="307.1" rx="0.9" ry="1.2"/><ellipse class="cls-4" cx="72.2" cy="287" rx="0.9" ry="1.2"/><ellipse class="cls-6" cx="96.2" cy="302.3" rx="0.9" ry="1.2"/><ellipse class="cls-6" cx="59.8" cy="228.4" rx="0.9" ry="1.2"/></g><g class="cls-3"><ellipse class="cls-4" cx="414" cy="361" rx="0.9" ry="1.2"/><ellipse class="cls-4" cx="544.7" cy="361" rx="0.9" ry="1.2"/><ellipse class="cls-4" cx="540.6" cy="407.3" rx="0.9" ry="1.2"/><ellipse class="cls-5" cx="598.1" cy="350.3" rx="0.9" ry="1.2"/><ellipse class="cls-4" cx="624.2" cy="361" rx="0.9" ry="1.2"/><ellipse class="cls-4" cx="663.3" cy="403.2" rx="0.9" ry="1.2"/><ellipse class="cls-4" cx="596" cy="422.9" rx="0.9" ry="1.2"/><ellipse class="cls-4" cx="671.9" cy="353.8" rx="0.9" ry="1.2"/><ellipse class="cls-6" cx="457.8" cy="433" rx="0.9" ry="1.2"/><ellipse class="cls-6" cx="627.7" cy="419.6" rx="0.9" ry="1.2"/><ellipse class="cls-4" cx="455.3" cy="367.5" rx="0.9" ry="1.2"/><ellipse class="cls-6" cx="499.4" cy="422.9" rx="0.9" ry="1.2"/><ellipse class="cls-6" cx="457" cy="334.7" rx="0.9" ry="1.2"/></g><g class="cls-3"><ellipse class="cls-4" cx="1140.4" cy="453.8" rx="1.2" ry="0.9"/><ellipse class="cls-4" cx="1140.4" cy="323.1" rx="1.2" ry="0.9"/><ellipse class="cls-4" cx="1186.7" cy="327.2" rx="1.2" ry="0.9"/><ellipse class="cls-5" cx="1129.7" cy="269.7" rx="1.2" ry="0.9"/><ellipse class="cls-4" cx="1140.4" cy="243.5" rx="1.2" ry="0.9"/><ellipse class="cls-4" cx="1182.6" cy="204.5" rx="1.2" ry="0.9"/><ellipse class="cls-4" cx="1202.2" cy="271.7" rx="1.2" ry="0.9"/><ellipse class="cls-4" cx="1133.1" cy="195.8" rx="1.2" ry="0.9"/><ellipse class="cls-6" cx="1212.4" cy="409.9" rx="1.2" ry="0.9"/><ellipse class="cls-6" cx="1198.9" cy="240" rx="1.2" ry="0.9"/><ellipse class="cls-4" cx="1146.8" cy="412.5" rx="1.2" ry="0.9"/><ellipse class="cls-6" cx="1202.2" cy="368.4" rx="1.2" ry="0.9"/><ellipse class="cls-6" cx="1114" cy="410.8" rx="1.2" ry="0.9"/></g><g class="cls-3"><ellipse class="cls-4" cx="335.3" cy="564.8" rx="0.9" ry="1.2"/><ellipse class="cls-4" cx="204.5" cy="564.8" rx="0.9" ry="1.2"/><ellipse class="cls-4" cx="208.7" cy="518.5" rx="0.9" ry="1.2"/><ellipse class="cls-5" cx="151.2" cy="575.5" rx="0.9" ry="1.2"/><ellipse class="cls-4" cx="125" cy="564.8" rx="0.9" ry="1.2"/><ellipse class="cls-4" cx="86" cy="522.6" rx="0.9" ry="1.2"/><ellipse class="cls-4" cx="153.2" cy="502.9" rx="0.9" ry="1.2"/><ellipse class="cls-4" cx="77.3" cy="572.1" rx="0.9" ry="1.2"/><ellipse class="cls-6" cx="291.4" cy="492.8" rx="0.9" ry="1.2"/><ellipse class="cls-6" cx="121.5" cy="506.2" rx="0.9" ry="1.2"/><ellipse class="cls-4" cx="294" cy="558.4" rx="0.9" ry="1.2"/><ellipse class="cls-6" cx="249.9" cy="502.9" rx="0.9" ry="1.2"/><ellipse class="cls-6" cx="292.3" cy="591.2" rx="0.9" ry="1.2"/></g><g class="cls-3"><ellipse class="cls-4" cx="700.4" cy="560.5" rx="0.9" ry="1.2"/><ellipse class="cls-4" cx="569.6" cy="560.5" rx="0.9" ry="1.2"/><ellipse class="cls-4" cx="573.8" cy="514.2" rx="0.9" ry="1.2"/><ellipse class="cls-5" cx="516.3" cy="571.3" rx="0.9" ry="1.2"/><ellipse class="cls-4" cx="490.1" cy="560.5" rx="0.9" ry="1.2"/><ellipse class="cls-4" cx="451.1" cy="518.3" rx="0.9" ry="1.2"/><ellipse class="cls-4" cx="518.3" cy="498.7" rx="0.9" ry="1.2"/><ellipse class="cls-4" cx="442.4" cy="567.8" rx="0.9" ry="1.2"/><ellipse class="cls-6" cx="656.5" cy="488.5" rx="0.9" ry="1.2"/><ellipse class="cls-6" cx="486.6" cy="502" rx="0.9" ry="1.2"/><ellipse class="cls-4" cx="1088.8" cy="568.6" rx="0.9" ry="1.2"/><ellipse class="cls-4" cx="1093" cy="522.3" rx="0.9" ry="1.2"/><ellipse class="cls-5" cx="1035.5" cy="579.4" rx="0.9" ry="1.2"/><ellipse class="cls-4" cx="1009.3" cy="568.6" rx="0.9" ry="1.2"/><ellipse class="cls-4" cx="970.3" cy="526.4" rx="0.9" ry="1.2"/><ellipse class="cls-4" cx="1037.5" cy="506.8" rx="0.9" ry="1.2"/><ellipse class="cls-4" cx="961.6" cy="575.9" rx="0.9" ry="1.2"/><ellipse class="cls-6" cx="1005.8" cy="510.1" rx="0.9" ry="1.2"/><ellipse class="cls-4" cx="659.1" cy="554.1" rx="0.9" ry="1.2"/><ellipse class="cls-6" cx="615" cy="498.7" rx="0.9" ry="1.2"/><ellipse class="cls-4" cx="973.4" cy="550.7" rx="0.9" ry="1.2"/><ellipse class="cls-4" cx="842.7" cy="550.7" rx="0.9" ry="1.2"/><ellipse class="cls-4" cx="846.8" cy="504.4" rx="0.9" ry="1.2"/><ellipse class="cls-5" cx="789.3" cy="561.5" rx="0.9" ry="1.2"/><ellipse class="cls-4" cx="791.4" cy="488.9" rx="0.9" ry="1.2"/><ellipse class="cls-6" cx="929.6" cy="478.7" rx="0.9" ry="1.2"/><ellipse class="cls-4" cx="932.1" cy="544.3" rx="0.9" ry="1.2"/><ellipse class="cls-6" cx="888" cy="488.9" rx="0.9" ry="1.2"/><ellipse class="cls-6" cx="657.4" cy="586.9" rx="0.9" ry="1.2"/></g><g class="cls-7"><ellipse class="cls-4" cx="476.6" cy="308.6" rx="0.9" ry="1.2"/><ellipse class="cls-4" cx="660.1" cy="193.8" rx="0.9" ry="1.2"/><ellipse class="cls-4" cx="656" cy="240.1" rx="0.9" ry="1.2"/><ellipse class="cls-5" cx="713.5" cy="183" rx="0.9" ry="1.2"/><ellipse class="cls-4" cx="739.7" cy="193.8" rx="0.9" ry="1.2"/><ellipse class="cls-4" cx="890.2" cy="193.8" rx="0.9" ry="1.2"/><ellipse class="cls-4" cx="778.7" cy="236" rx="0.9" ry="1.2"/><ellipse class="cls-4" cx="711.5" cy="255.6" rx="0.9" ry="1.2"/><ellipse class="cls-4" cx="787.4" cy="186.5" rx="0.9" ry="1.2"/><ellipse class="cls-4" cx="882.2" cy="244.1" rx="0.9" ry="1.2"/><ellipse class="cls-6" cx="573.3" cy="246.1" rx="0.9" ry="1.2"/><ellipse class="cls-6" cx="743.2" cy="252.3" rx="0.9" ry="1.2"/><ellipse class="cls-6" cx="901.8" cy="289.4" rx="0.9" ry="1.2"/><ellipse class="cls-5" cx="961.2" cy="173.5" rx="0.9" ry="1.2"/><ellipse class="cls-4" cx="987.4" cy="184.3" rx="0.9" ry="1.2"/><ellipse class="cls-4" cx="1026.5" cy="226.5" rx="0.9" ry="1.2"/><ellipse class="cls-4" cx="959.2" cy="246.1" rx="0.9" ry="1.2"/><ellipse class="cls-4" cx="1035.1" cy="177" rx="0.9" ry="1.2"/><ellipse class="cls-6" cx="990.9" cy="242.8" rx="0.9" ry="1.2"/><ellipse class="cls-4" cx="584.9" cy="226" rx="0.9" ry="1.2"/><ellipse class="cls-6" cx="608.9" cy="241.3" rx="0.9" ry="1.2"/><ellipse class="cls-6" cx="519.6" cy="282.2" rx="0.9" ry="1.2"/></g><path class="cls-8" d="M1251.1,444.3l27.3,10.5s-76.7,37.3-115.2,38l53.3-20.7,41-18.6Z" transform="translate(0 0.4)"/><path class="cls-8" d="M944.8,485.6l-42.1,19.8,16.5-12.7,14.2-15.1,1.5-5.6C935,472,944.5,481.8,944.8,485.6Z" transform="translate(0 0.4)"/><polygon class="cls-9" points="204.4 206.7 212.5 204.9 205.1 208.7 206.9 216.7 203.1 209.4 195.1 211.2 202.4 207.4 200.6 199.3 204.4 206.7"/><ellipse class="cls-8" cx="302.77" cy="485.84" rx="4.8" ry="9.5" transform="translate(-269.37 505.52) rotate(-60)"/><ellipse class="cls-8" cx="177.1" cy="470.1" rx="9.5" ry="4.8"/><ellipse class="cls-8" cx="197.28" cy="486.78" rx="2.4" ry="4.8" transform="translate(-286.42 282.47) rotate(-45)"/><ellipse class="cls-8" cx="191.39" cy="477.24" rx="4.8" ry="2.4" transform="translate(-322.8 479.92) rotate(-68.4)"/><path class="cls-8" d="M251,469.7l18,10.6,11.1,20s13.2,22,13.2,24.7-5.6,18.6-5.6,18.6H271.5l8.5-16-8.7-28-9.3-18Z" transform="translate(0 0.4)"/><path class="cls-8" d="M54.3,490.9L65,504.6l-1.1,21.1s-0.3,23.4-1.9,26S46,568,46,568l-15.2-3.3L48,551.4l8-28.1,1.6-18.8Z" transform="translate(0 0.4)"/><polygon class="cls-8" points="634.3 500.8 662.2 505.8 669.4 511.5 647.1 512.1 605.8 528.7 586.3 548.3 558.8 541.9 601.8 521.4 637.6 511.5 649.3 505.8 634.3 500.8"/><path class="cls-8" d="M847.2,488.7l2.2,7.3-8.6,11.6-11.5,1.5L818.6,521l38.2-17.6A54.12,54.12,0,0,0,847.2,488.7Z" transform="translate(0 0.4)"/><polygon class="cls-8" points="377 505.1 398.8 515 425.5 515 448.4 522 470.2 522 432.8 508.8 408.8 500 370.9 500 377 505.1"/><path class="cls-10" d="M258.8,539.2c0,7.1-24,12.8-53.5,12.8-24.6,0-45.4-4-51.6-9.4" transform="translate(0 0.4)"/><g class="cls-11"><polygon class="cls-12" points="1287 43.1 517.8 603 590.8 603 1287 96.4 1287 43.1"/><polygon class="cls-12" points="1287 367.9 1287 329.4 910.7 603 963.5 603 1287 367.9"/><polygon class="cls-12" points="1287 302.8 1287 161.5 680.1 603 874.2 603 1287 302.8"/></g><g class="cls-11"><polygon class="cls-12" points="602.8 0 0 254.2 0 297.8 706.3 0 602.8 0"/><polygon class="cls-12" points="1159.8 0 0 488.6 0 520.1 1234.6 0 1159.8 0"/><polygon class="cls-12" points="832.9 0 0 351.1 0 466.8 1108 0 832.9 0"/></g></svg>